<?xml version="1.0" encoding="utf-8"?>
<!-- Generator: Adobe Illustrator 27.5.0, SVG Export Plug-In . SVG Version: 6.00 Build 0)  -->
<svg version="1.1" id="Layer_1" xmlns="http://www.w3.org/2000/svg" xmlns:xlink="http://www.w3.org/1999/xlink" x="0px" y="0px"
	 viewBox="0 0 4000 4000" style="enable-background:new 0 0 4000 4000;" xml:space="preserve">
<g>
	<g>
		<rect x="2.497" y="2.497" style="fill:#3AAAFF;" width="3995.006" height="3995.006"/>
	</g>
	<g>
		<g>
			<g>
				<path style="fill:#F01D27;" d="M3030.831,2092.556c-173.84,524.804-768.962,799.654-1329.311,614.04
					c-560.522-185.671-873.876-761.451-700.036-1286.255c31.686-95.656,77.492-183.155,134.401-260.982
					c69.764-95.031,162.03-168.687,266.823-217.118c90.527-42.136,190.201-65.191,292.411-67.299
					c145.45-3.06,335.459,15.215,554.072,88.983c185.216,62.512,333.012,134.092,445.972,199.933
					c43.638,25.283,82.166,49.646,115.409,72.452c4.766,3.126,9.299,6.368,13.775,9.784
					c62.772,45.156,115.988,101.648,156.681,166.173c38.422,60.293,65.829,127.572,79.893,198.939
					C3091.514,1768.097,3083.757,1932.781,3030.831,2092.556z"/>
			</g>
			<g style="opacity:0.25;">
				<path style="fill:#390175;" d="M2980.402,1511.06c-6.186-31.528-15.125-62.176-26.321-91.817
					c13.154-3.983,18.975-19.582,10.817-31.202c-19.634-27.965-41.808-54.134-66.049-78.41c-0.05-0.077-0.094-0.157-0.144-0.234
					c-9.997-10.089-20.5-19.695-31.237-29.051c-1.332-1.156-2.644-2.326-3.986-3.471c-11.91-10.192-24.231-19.919-36.944-29.164
					c-0.177-0.128-0.335-0.276-0.512-0.404c-0.09-0.065-0.196-0.103-0.287-0.166c-5.029-3.645-10.021-7.338-15.166-10.829
					c-33.62-22.854-72.492-47.413-116.327-72.904c-0.208-0.132-0.385-0.308-0.598-0.432c-1.282-0.746-2.702-1.511-3.994-2.259
					c-2.374-1.373-4.579-2.712-6.983-4.09c0.008,0.051,0.01,0.1,0.018,0.151c-111.338-63.876-254.861-132.561-433.498-192.852
					c-218.613-73.768-408.622-92.043-554.072-88.983c-90.948,1.875-179.889,20.336-262.164,54.068
					c-14.434,5.918-17.619,25.302-5.253,34.812c125.216,96.303,327.383,95.01,430.122,86.846
					c18.654-1.482,29.031,21.255,15.629,34.314c-77.841,75.853-90.609,144.563-88.573,186.959
					c0.842,17.529,22.554,25.937,34.568,13.145c144.039-153.364,391.794-118.854,416.867-114.904
					c1.403,0.375,2.665,0.711,4.068,1.086c134.063,50.559,257.562,211.261,312.084,290.354c10.695,15.515,34.968,8.906,36.719-9.856
					c11.586-124.203-16.958-195.61-19.057-200.55c6.105,5.503,12.268,10.831,18.256,16.102l0.117,0.232
					c6.116,5.312,12.167,10.454,18.153,15.433c55.049,45.785,83.747,116.874,70.901,187.313
					c-7.627,41.823-18.183,83.551-31.904,124.974c-173.782,524.63-768.962,799.654-1329.311,614.04
					c-110.641-36.649-211.501-88.815-301.007-152.495c31.328,84.626,74.141,165.516,127.334,240.175
					c124.005,136.981,286.672,245.97,478.334,309.457c560.349,185.614,1155.528-89.409,1329.31-614.039
					C3003.294,1832.459,3010.994,1667.95,2980.402,1511.06z"/>
			</g>
			<g style="opacity:0.35;">
				<path style="fill:#FFFFFF;" d="M1155.362,1714.899c-23.612-15.604-26.865-45.1-25.532-73.371
					c7.564-160.416,191.302-574.989,435.41-542.905c252.802,33.226-128.108,326.728-224.614,470.705
					C1250.871,1703.232,1219.129,1757.04,1155.362,1714.899z"/>
			</g>
			<g>
				<path style="fill:#390175;" d="M2058.692,2797.577c-122.781,0.005-246.742-19.887-367.529-59.896
					c-278.963-92.404-507.598-281.128-643.8-531.396c-136.582-250.985-163.921-533.764-76.974-796.248
					c32.128-96.998,78.92-187.832,139.074-269.98c133.095-181.77,351.767-293.142,584.943-297.919
					c185.418-3.816,375.483,26.749,565.245,90.787c267.664,90.331,457.334,200.065,569.303,276.208l0,0
					c136.826,93.048,233.088,237.323,264.094,395.833c32.518,166.237,21.78,338.412-31.055,497.908
					c-86.947,262.484-277.695,473.022-537.107,592.833C2378.215,2763.449,2219.477,2797.572,2058.692,2797.577z M1725.193,907.395
					c-9.831,0-19.638,0.1-29.441,0.3c-212.883,4.362-412.278,105.71-533.386,271.102c-56.107,76.623-99.753,161.361-129.73,251.858
					c-167.852,506.723,136.811,1065.131,679.146,1244.78c114.861,38.048,231.385,56.102,345.193,56.107
					c423.562,0.029,810.467-249.883,942.772-649.286c49.294-148.815,59.306-309.506,28.948-464.702
					c-27.719-141.686-113.959-270.787-236.618-354.196l0,0c-108.585-73.843-292.735-180.334-553.395-268.302
					C2066.197,936.846,1893.596,907.395,1725.193,907.395z"/>
			</g>
			<g>
				<path style="fill:#4CE550;" d="M3093.279,1224.579c0,0-0.232,0.115-0.347,0.464c-6.476,13.13-148.005,281.032-516.192-38.731
					l-0.116-0.232c-5.989-5.271-12.151-10.599-18.256-16.102c2.391,5.626,39.072,97.439,11.741,255.252
					c0,0-162.388-269.189-343.492-335.946c0,0-299.602-52.836-444.569,145.479c0,0-60.145-130.136,128.401-272.638
					c0,0-507.136,85.116-591.007-223.225c4.999,4.17,99.815,82.756,223.352,63.544c127.252-19.916,459.702-92.514,645.146,60.372
					c0,0,71.301-48.89,44.181-180.075c0,0,96.063-30.247,200.093,9.433c0,0,1.441,26.001-8.876,64.734
					c-10.201,38.385-32.045,89.737-78.094,140.611c0,0,136.063-25.503,307.05,155.269
					C2823.338,1233.386,3093.279,1224.579,3093.279,1224.579z"/>
			</g>
			<g style="opacity:0.25;">
				<path style="fill:#390175;" d="M1354.962,818.035c0,0,177.237,89.375,420.823,77.022s307.786,22.696,307.786,22.696
					s-119.869,9.083-188.107,55.987C1827.225,1020.643,1465.783,987.76,1354.962,818.035z"/>
			</g>
			<g style="opacity:0.25;">
				<path style="fill:#390175;" d="M2570.108,1425.23c0,0-162.388-269.189-343.492-335.946c0,0-299.602-52.836-444.569,145.479
					c0,0,62.815-210.06,301.155-232.622C2321.601,979.404,2529.392,1132.537,2570.108,1425.23z"/>
			</g>
			<g style="opacity:0.25;">
				<path style="fill:#390175;" d="M3092.932,1225.044c-6.476,13.13-148.005,281.032-516.192-38.731l-0.116-0.232
					c-66.485-106.326-133.399-131.972-133.399-131.972c127.78-16.259,168.32,90.173,358.343,177.287
					C2984.038,1315.041,3085.109,1231.733,3092.932,1225.044z"/>
			</g>
			<g style="opacity:0.6;">
				<path style="fill:#FFFFFF;" d="M2301.558,753.886c-40.876,147.332-124.704,109.124-124.704,109.124
					c9.252,11.175,13.367,22.18,14.503,32.225c2.54,22.451-23.785,36.466-42.342,23.577
					c-148.782-103.342-270.193-66.002-516.143-56.754c-255.894,9.594-311.216-117.591-313.432-123.159
					c4.999,4.17,99.815,82.756,223.352,63.544c127.252-19.916,459.702-92.514,645.146,60.372c0,0,71.301-48.89,44.181-180.075
					c0,0,96.063-30.247,200.093,9.433c0,0,1.441,26.001-8.876,64.734C2363.401,737.633,2301.558,753.886,2301.558,753.886z"/>
			</g>
			<g>
				<g>
					<path style="fill:#390175;" d="M2532.591,1184.208c-15.374-41.206-39.073-79.153-63.677-115.604
						c-2.037-2.977-1.271-7.04,1.704-9.075c2.351-1.606,5.384-1.461,7.556,0.131c9.302,6.845,18.575,13.827,27.668,21.108
						c25.443,20.398,49.98,42.23,71.773,66.732c3.821,4.078,8.628,10.804,11.972,15.54c10.146,14.142,6.908,33.831-7.232,43.978
						C2563.126,1221.388,2534.247,1207.955,2532.591,1184.208L2532.591,1184.208z"/>
				</g>
				<g>
					<path style="fill:#390175;" d="M1900.269,934.322c52.434-10.563,105.916-14.789,159.115-14.36
						c8.487,0.11,10.094,12.334,1.936,14.614c-48.633,13.83-96.221,31.81-140.815,55.184c-14.386,8.099-32.615,3.001-40.716-11.386
						C1869.612,961.031,1880.56,937.771,1900.269,934.322L1900.269,934.322z"/>
				</g>
			</g>
			<g>
				<path style="fill:#390175;" d="M2570.186,1454.768c-10.202,0-19.848-5.303-25.256-14.255
					c-1.565-2.592-157.635-258.437-325.848-322.636c-28.056-4.17-287.575-37.439-413.146,134.388
					c-6.169,8.439-16.303,12.987-26.739,11.953c-10.397-1.031-19.478-7.488-23.867-16.973
					c-2.477-5.362-51.469-116.385,68.167-246.694c-49.279,2.848-113.623,3.277-180.887-5.179
					c-192.46-24.201-314.104-110.287-351.777-248.954c-3.404-12.533,1.785-25.82,12.782-32.728
					c10.992-6.908,25.217-5.811,35.029,2.704c0.81,0.69,88.171,74.294,199.658,56.848c10.436-1.634,22.267-3.623,35.298-5.815
					c141.176-23.742,429-72.134,611.414,56.021c14.586-20.224,33.201-62.129,18.176-134.819
					c-3.063-14.837,5.608-29.587,20.063-34.125c4.321-1.358,107.195-32.762,219.521,10.029c10.919,4.16,18.361,14.374,18.966,26.047
					c0.21,4.045,3.618,86.937-57.892,179.685c60.876,9.768,159.24,45.315,269.829,162.165
					c159.527,168.566,416.018,162.807,418.632,162.709c10.266-0.207,20.039,4.777,25.652,13.416
					c5.618,8.642,6.335,19.587,1.863,28.873c-2.082,4.328-52.386,106.266-172.616,129.848
					c-99.558,19.504-214.005-20.421-341.053-118.802c5.204,45.222,6.12,106.493-6.881,181.809
					c-2.097,12.138-11.514,21.692-23.618,23.974C2573.829,1454.599,2571.996,1454.768,2570.186,1454.768z M2135.978,1053.065
					c53.834,0,91.419,6.306,95.783,7.074c1.741,0.305,3.448,0.768,5.106,1.38c131.564,48.584,250.673,193.34,313.051,280.375
					c5.077-102.304-18.434-159.839-18.731-160.539c-5.359-12.745-1.175-27.575,10.105-35.573
					c11.275-8.003,26.573-7.161,36.824,2.107c137.353,124.144,260.773,180.031,356.888,161.636
					c47.826-9.154,81.271-34.717,102.499-57.428c-91.809-7.486-275.281-40.25-406.694-179.102
					c-155.957-164.792-279.187-146.528-280.411-146.333c-12.47,2.358-24.857-3.55-31.05-14.606
					c-6.193-11.053-4.487-24.857,4.018-34.249c60.374-66.699,74.979-133.095,78.432-164.855
					c-55.839-16.466-107.107-12.423-136.114-7.578c15.24,127.828-57.75,179.436-61.081,181.716
					c-10.846,7.413-25.286,6.766-35.42-1.58c-159.712-131.547-447.492-83.143-585.796-59.884c-13.274,2.234-25.33,4.26-35.966,5.923
					c-62.539,9.785-117.973-2.726-160.449-19.802c137.294,182.255,514.26,121.903,518.536,121.194
					c13.421-2.248,26.598,4.955,31.972,17.434c5.374,12.475,1.541,27.007-9.295,35.203
					c-94.389,71.393-120.46,137.153-125.098,181.258C1905.109,1071.402,2044.164,1053.065,2135.978,1053.065z"/>
			</g>
		</g>
		<g style="opacity:0.2;">
			<ellipse style="fill:#390175;" cx="1999.159" cy="3467.131" rx="892.266" ry="95.915"/>
		</g>
	</g>
</g>
</svg>
